<?xml version="1.0" encoding="utf-8"?>
<!-- Generator: Adobe Illustrator 17.0.0, SVG Export Plug-In . SVG Version: 6.00 Build 0)  -->
<!DOCTYPE svg PUBLIC "-//W3C//DTD SVG 1.1//EN" "http://www.w3.org/Graphics/SVG/1.1/DTD/svg11.dtd">
<svg version="1.1" id="Layer_1" xmlns="http://www.w3.org/2000/svg" xmlns:xlink="http://www.w3.org/1999/xlink" x="0px" y="0px"
	 width="512px" height="124px" viewBox="0 0 512 124" enable-background="new 0 0 512 124" xml:space="preserve">
<g>
	<g transform="translate(303.542858, 0.000000)">
		<path fill="#DF4F4F" d="M0.215,0.215l107.287,113.643c0,0,3.655,2.578,6.45-0.43c2.795-3.008,0.645-6.015,0.645-6.015L0.215,0.215
			L0.215,0.215z"/>
		<path fill="#DF4F4F" d="M34.186,10.956l81.701,88.078c0,0,3.655,2.578,6.45-0.43c2.795-3.008,0.645-6.015,0.645-6.015
			L34.186,10.956L34.186,10.956z"/>
		<path fill="#DF4F4F" d="M10.32,33.942l81.701,88.078c0,0,3.655,2.578,6.45-0.43c2.795-3.008,0.645-6.015,0.645-6.015L10.32,33.942
			L10.32,33.942z"/>
		<path fill="#DF4F4F" d="M62.903,20.194l57.08,61.535c0,0,2.554,1.801,4.506-0.3c1.953-2.101,0.451-4.202,0.451-4.202
			L62.903,20.194L62.903,20.194z"/>
		<path fill="#DF4F4F" d="M18.182,60.581l57.08,61.535c0,0,2.554,1.801,4.506-0.3s0.451-4.202,0.451-4.202L18.182,60.581
			L18.182,60.581z"/>
		<path fill="#DF4F4F" d="M92.236,33.513l25.87,27.974c0,0,1.263,0.844,2.229-0.141c0.966-0.985,0.223-1.969,0.223-1.969
			L92.236,33.513L92.236,33.513z"/>
		<path fill="#DF4F4F" d="M32.465,88.938l25.87,27.974c0,0,1.263,0.844,2.229-0.141c0.966-0.985,0.223-1.969,0.223-1.969
			L32.465,88.938L32.465,88.938z"/>
	</g>
	<g transform="translate(0.000000, 44.184078)">
		<path fill="#26262C" d="M446.171,2.046v75.434h17.067V53.147h12.8l16.457,24.333H512l-18.286-26.158
			c0,0,16.238-6.418,16.238-23.826c0-24.576-22.333-25.448-22.333-25.448L446.171,2.046L446.171,2.046z"/>
		<path fill="#FFFFFF" d="M463.238,16.648v21.899h21.943c0,0,8.387-0.001,8.387-10.951c0-11.365-10.216-10.949-10.216-10.949
			H463.238L463.238,16.648z"/>
		<path fill="#26262C" d="M257.219,2.048v75.431h57.295v-14.6h-40.229V47.063h34.743v-14.6h-34.743V16.636h40.229V2.048H257.219
			L257.219,2.048z"/>
		<path fill="#26262C" d="M174.324,2.048v14.6h22.552v60.832h17.067V16.648h22.552v-14.6H174.324L174.324,2.048z"/>
		<path fill="#26262C" d="M96.305,2.048v75.431H153.6v-14.6h-40.229V47.063h34.743v-14.6h-34.743V16.636H153.6V2.048H96.305
			L96.305,2.048z"/>
		<path fill="#26262C" d="M0,2.046v75.435l17.055-0.001V30.029l20.724,30.416l20.735-30.416v47.453h17.067V2.046H58.514
			L37.779,33.07L17.055,2.046L0,2.046L0,2.046z"/>
	</g>
</g>
</svg>
